<?xml version="1.0" encoding="utf-8"?>
<!-- Generator: Adobe Illustrator 27.0.0, SVG Export Plug-In . SVG Version: 6.00 Build 0)  -->
<svg version="1.1" id="Layer_1" xmlns="http://www.w3.org/2000/svg" xmlns:xlink="http://www.w3.org/1999/xlink" x="0px" y="0px"
	 viewBox="0 0 100 100" style="enable-background:new 0 0 100 100;" xml:space="preserve">
<style type="text/css">
	.st0{fill:#FFFFFF;}
	.st1{fill:#323287;}
</style>
<path class="st0" d="M92.7,99.7H7.3c-3.6,0-6.6-2.9-6.6-6.6V7.7c0-3.6,2.9-6.6,6.6-6.6h85.4c3.6,0,6.6,2.9,6.6,6.6v85.4
	C99.3,96.7,96.3,99.7,92.7,99.7z"/>
<path class="st1" d="M63.3,26.1v-9.5H70V10H30v6.7h6.7v9.5c-8.1,3.6-14.5,10.2-17.7,18.5c10.7-2.8,22-2.1,32.4,2.2
	c9.9,4.1,20.8,4.5,30.9,1.2C79.5,38.2,72.5,30.2,63.3,26.1z"/>
<path class="st1" d="M83.2,54.8c-4.9,1.5-9.9,2.2-14.9,2.2c-6.6,0-13.3-1.3-19.6-3.9c-10.2-4.2-21.4-4.5-31.7-0.9
	c-0.2,1.5-0.3,2.9-0.3,4.4C16.7,75.1,31.6,90,50,90c18.4,0,33.3-14.9,33.3-33.3C83.3,56,83.3,55.4,83.2,54.8z M31.7,70
	c-2.8,0-5-2.2-5-5c0-2.8,2.2-5,5-5c2.8,0,5,2.2,5,5C36.7,67.8,34.4,70,31.7,70z M43.3,80c-1.8,0-3.3-1.5-3.3-3.3
	c0-1.8,1.5-3.3,3.3-3.3c1.8,0,3.3,1.5,3.3,3.3C46.7,78.5,45.2,80,43.3,80z M70,70c-1.8,0-3.3-1.5-3.3-3.3c0-1.8,1.5-3.3,3.3-3.3
	s3.3,1.5,3.3,3.3C73.3,68.5,71.8,70,70,70z"/>
</svg>
